<?xml version="1.0" standalone="no"?>
<!DOCTYPE svg PUBLIC "-//W3C//DTD SVG 20010904//EN"
 "http://www.w3.org/TR/2001/REC-SVG-20010904/DTD/svg10.dtd">
<svg version="1.0" xmlns="http://www.w3.org/2000/svg"
 width="1667.000000pt" height="1667.000000pt" viewBox="0 0 1667.000000 1667.000000"
 preserveAspectRatio="xMidYMid meet">
<metadata>
Created by potrace 1.11, written by Peter Selinger 2001-2013
</metadata>
<g transform="translate(0.000000,1667.000000) scale(0.100000,-0.100000)"
fill="#000000" stroke="none">
<path d="M5117 11535 c-50 -19 -119 -69 -155 -114 -59 -74 -111 -209 -127
-331 -3 -25 -8 -56 -10 -70 -3 -14 -7 -54 -9 -90 -3 -36 -8 -94 -11 -130 -8
-89 -13 -180 -22 -415 -10 -248 -10 -1526 -1 -1617 6 -54 4 -78 -13 -130 -22
-65 -72 -167 -127 -253 -43 -68 -79 -235 -50 -235 16 0 114 101 167 173 23 32
44 57 46 55 2 -2 6 -28 10 -58 3 -30 8 -71 10 -90 2 -19 7 -60 10 -90 3 -30 8
-66 10 -80 2 -14 7 -54 10 -90 3 -36 8 -81 10 -100 3 -19 7 -60 10 -90 3 -30
7 -71 10 -90 2 -19 11 -96 20 -170 8 -74 17 -144 19 -155 2 -11 7 -51 11 -90
4 -38 8 -72 10 -75 2 -3 6 -39 10 -80 4 -41 8 -77 10 -80 1 -3 6 -30 9 -61 4
-31 8 -65 10 -75 2 -11 7 -47 11 -82 6 -57 13 -70 81 -162 80 -107 100 -125
155 -135 l36 -7 -7 49 c-5 27 -11 73 -15 102 -4 30 -8 61 -10 70 -1 9 -6 41
-9 72 -4 31 -8 65 -10 75 -2 11 -7 46 -10 79 -4 33 -9 67 -11 75 -2 8 -6 46
-10 83 -3 37 -8 76 -10 85 -4 22 -16 127 -20 174 -2 21 -6 50 -9 65 -6 29 -12
74 -21 155 -3 26 -7 62 -10 80 -5 31 -30 239 -41 338 -2 25 -7 54 -9 65 -2 11
-7 54 -10 95 -7 86 -10 117 -24 215 -28 203 -31 179 57 447 191 578 360 1222
407 1553 3 17 7 41 10 55 2 14 7 52 11 85 3 33 8 69 10 80 17 92 24 405 11
513 -11 91 -51 208 -93 272 -79 121 -213 177 -327 135z m166 -206 c65 -18 88
-92 91 -299 3 -129 -10 -324 -29 -450 -2 -14 -11 -74 -20 -135 -57 -391 -214
-1042 -334 -1385 l-30 -85 -1 60 c0 33 -4 155 -7 270 -15 572 -6 1144 22 1405
33 307 111 551 194 607 38 26 58 28 114 12z"/>
<path d="M2233 11201 c-32 -26 -68 -53 -80 -60 -21 -11 -23 -19 -23 -95 l0
-83 -47 -18 c-219 -81 -473 -264 -591 -425 -45 -61 -103 -172 -125 -240 -31
-95 -30 -190 3 -190 4 0 26 35 47 78 75 152 167 259 315 364 144 103 384 225
404 206 7 -7 11 -42 18 -148 4 -47 8 -101 10 -120 3 -19 7 -71 11 -115 3 -44
8 -102 11 -130 10 -102 21 -354 29 -673 l5 -212 -29 -18 c-15 -9 -101 -55
-190 -102 -90 -47 -176 -96 -192 -110 -29 -24 -30 -29 -31 -103 -1 -85 18
-129 60 -135 11 -2 71 22 134 54 62 31 148 72 191 90 l77 33 1 -92 c0 -51 2
-128 4 -172 4 -105 17 -477 17 -490 0 -5 -3 -80 -7 -165 -4 -85 -9 -245 -10
-355 -2 -110 -4 -221 -4 -247 -1 -44 -3 -47 -48 -74 -42 -24 -58 -28 -138 -28
-90 0 -169 8 -224 24 -40 11 -47 -11 -21 -66 67 -137 286 -213 526 -181 61 8
320 104 491 182 29 14 56 25 59 25 16 0 358 177 456 236 111 66 298 190 308
203 3 4 21 18 40 31 154 106 366 305 515 485 157 188 308 453 349 612 47 179
18 354 -76 454 -157 168 -418 238 -868 233 -124 -1 -234 -4 -245 -7 -11 -2
-47 -8 -80 -11 -70 -8 -100 -13 -174 -26 -30 -6 -60 -10 -66 -10 -7 0 52 64
130 143 162 162 224 235 308 362 170 258 243 520 196 699 -16 60 -71 155 -119
204 -109 111 -376 188 -645 186 -218 -2 -364 -34 -551 -120 -10 -4 -17 20 -39
134 -4 17 -13 32 -20 32 -7 0 -40 -22 -72 -49z m928 -285 c171 -38 289 -140
289 -249 0 -107 -67 -303 -159 -462 -171 -299 -445 -551 -780 -719 l-91 -46
-1 47 c-1 134 -22 442 -45 678 -8 82 -11 472 -4 569 l5 80 60 24 c118 48 235
78 345 88 36 4 67 8 69 10 10 8 255 -7 312 -20z m736 -1511 c135 -12 256 -41
325 -76 88 -44 120 -102 119 -213 -2 -302 -423 -789 -1012 -1168 -265 -170
-486 -282 -733 -369 -117 -42 -125 -41 -127 11 0 14 -2 32 -4 40 -4 24 -14
173 -21 320 -3 74 -7 160 -9 190 -2 30 -7 269 -10 531 l-7 475 93 41 c216 94
519 169 839 208 19 2 80 7 135 11 55 3 101 7 103 9 5 4 241 -3 309 -10z"/>
<path d="M7167 9445 c-13 -13 -17 -37 -18 -108 -1 -51 -3 -123 -4 -162 -1 -38
-6 -173 -9 -300 -4 -126 -9 -284 -11 -350 -8 -206 -17 -508 -17 -553 -1 -40
-5 -46 -81 -115 -243 -221 -346 -260 -429 -167 -41 46 -55 84 -73 205 -17 117
-12 475 10 670 2 22 7 74 11 115 3 41 8 82 9 91 11 57 16 187 7 193 -22 14
-150 18 -186 6 l-36 -12 0 -111 c1 -125 -10 -214 -40 -332 -21 -81 -74 -253
-90 -290 -4 -11 -23 -56 -40 -100 -76 -189 -189 -382 -269 -459 -36 -35 -44
-39 -68 -30 -37 13 -71 82 -89 185 -21 120 -18 370 13 934 7 137 9 472 3 528
-2 20 -13 46 -25 56 -22 21 -125 51 -173 51 -28 0 -30 -2 -27 -33 11 -105 17
-385 20 -862 3 -502 10 -792 20 -840 2 -11 7 -47 10 -80 9 -92 22 -127 61
-173 62 -73 116 -88 225 -62 66 16 116 64 186 180 75 126 87 147 195 359 54
107 98 188 99 180 0 -8 2 -23 5 -34 2 -11 6 -47 9 -80 7 -71 14 -131 20 -165
3 -14 7 -44 10 -66 7 -60 43 -170 61 -188 21 -21 89 -38 151 -38 152 1 353
115 471 267 l23 29 -5 -99 c-3 -55 -9 -128 -12 -161 -6 -58 -4 -64 31 -117 20
-30 51 -62 67 -70 28 -13 88 -14 108 -2 4 3 11 35 15 72 8 86 20 158 50 318
21 112 87 349 142 515 104 313 293 690 349 698 38 5 50 -63 47 -283 -6 -507
-6 -735 -1 -770 4 -22 10 -60 14 -85 12 -82 60 -130 128 -130 43 0 57 18 90
120 126 385 392 878 486 903 30 8 49 -28 55 -102 2 -34 7 -80 10 -102 3 -21 7
-58 10 -81 51 -388 173 -588 385 -626 61 -12 165 3 235 32 21 9 41 13 45 9 4
-5 12 -28 19 -53 49 -174 177 -328 311 -372 62 -20 157 -22 200 -4 234 98 530
756 525 1166 -2 172 -38 249 -155 335 -125 92 -387 194 -612 239 -152 31 -278
43 -278 28 0 -11 -47 -58 -86 -87 -18 -12 -17 -14 10 -42 51 -51 86 -109 80
-134 -8 -37 -12 -68 -19 -149 -4 -41 -9 -86 -11 -100 -8 -39 -11 -524 -5 -628
l6 -92 -60 -1 c-33 -1 -80 -1 -104 0 -163 5 -277 190 -311 503 -6 57 -13 119
-15 138 -3 19 -7 63 -10 98 -7 81 -22 185 -35 249 -15 66 -48 100 -107 109
-67 10 -114 -9 -183 -73 -104 -96 -207 -274 -335 -580 -33 -79 -63 -143 -66
-143 -3 0 -7 30 -8 68 -2 37 -4 87 -6 112 -2 25 -6 140 -9 255 -14 459 -21
510 -87 576 -44 44 -73 49 -135 23 -145 -60 -381 -462 -509 -864 -15 -47 -28
-89 -30 -95 -4 -11 5 448 10 505 6 70 17 216 21 260 3 41 4 251 2 293 -1 10
-23 34 -50 53 -57 43 -116 55 -141 29z m2633 -585 c331 -92 413 -174 414 -415
1 -129 -4 -161 -39 -275 -72 -226 -244 -471 -363 -517 -38 -14 -51 -15 -90 -4
-53 14 -116 61 -137 102 -16 29 -40 124 -49 194 -31 213 -18 526 30 745 39
175 54 221 73 216 9 -3 81 -23 161 -46z"/>
<path d="M10695 9223 c4 -43 9 -87 11 -98 1 -11 5 -54 9 -95 3 -41 7 -86 9
-100 3 -14 7 -61 11 -105 4 -44 9 -88 11 -98 2 -10 6 -49 9 -87 3 -38 7 -86 9
-107 12 -107 23 -239 32 -383 3 -47 7 -240 8 -428 3 -222 8 -348 14 -354 20
-20 109 -22 156 -4 52 20 57 29 47 83 -11 55 0 493 14 598 2 17 7 52 10 79 7
61 65 215 123 326 139 268 385 466 629 506 149 24 203 57 203 123 0 16 -11 17
-122 15 -108 -1 -194 -8 -247 -19 -198 -41 -321 -103 -443 -221 -69 -67 -117
-137 -180 -263 -44 -87 -48 -92 -49 -60 -1 19 -3 43 -4 54 -1 11 -5 67 -9 125
-10 137 -19 228 -32 320 -11 75 -34 204 -37 207 -14 13 -142 63 -163 63 l-26
0 7 -77z"/>
<path d="M12111 9279 c-5 -13 -7 -35 -6 -49 3 -24 13 -287 21 -545 5 -172 4
-842 -1 -955 -16 -326 -17 -307 11 -339 23 -28 28 -30 86 -25 34 2 65 7 69 12
4 4 18 48 32 97 34 123 83 275 160 495 160 457 297 724 389 759 47 18 64 -17
124 -254 20 -77 37 -147 39 -156 10 -48 79 -302 96 -353 89 -263 202 -396 341
-400 36 -1 48 -5 48 -16 0 -22 38 -91 69 -123 41 -45 80 -61 143 -59 148 3
346 140 544 376 84 100 267 365 319 461 l27 50 -8 -65 c-4 -36 -8 -78 -10 -95
-2 -16 -5 -50 -8 -75 -12 -105 -7 -328 9 -396 26 -113 83 -173 173 -182 193
-18 455 158 602 405 70 117 104 198 95 221 -4 11 -15 4 -43 -29 -130 -155
-306 -314 -381 -346 -78 -33 -169 -25 -219 20 -65 60 -84 322 -48 672 11 102
18 161 31 245 8 52 16 111 19 130 3 19 12 74 20 123 9 48 19 104 22 125 3 20
7 44 9 52 2 8 7 30 10 48 l5 32 -47 1 c-157 5 -210 -1 -307 -31 -269 -84 -531
-324 -789 -722 -118 -182 -164 -277 -207 -428 -20 -73 -26 -103 -39 -203 l-6
-48 -50 26 c-87 46 -116 86 -174 230 -25 63 -68 234 -76 300 -3 28 -8 61 -10
75 -2 14 -7 49 -10 79 -3 30 -8 57 -9 60 -2 3 -7 31 -11 61 -21 178 -79 333
-152 404 -84 83 -163 108 -222 69 -132 -86 -298 -395 -446 -832 l-43 -125 4
110 c9 255 19 967 15 1020 -1 6 -13 17 -28 24 -16 8 -48 29 -73 46 -25 18 -58
36 -73 39 -22 6 -28 3 -36 -16z m2539 -370 c0 -36 -57 -258 -87 -339 -59 -159
-170 -368 -271 -509 -150 -212 -362 -409 -474 -443 -33 -10 -41 -9 -57 6 -75
68 -25 335 110 586 155 287 419 574 634 689 44 23 145 30 145 10z"/>
</g>
</svg>
